<svg width="45" height="45" viewBox="0 0 45 45" fill="none" xmlns="http://www.w3.org/2000/svg">
<rect width="45" height="45" rx="10" fill="#FBFAFF"/>
<path d="M30.3641 10.1514C30.5352 9.96064 30.8216 9.94833 31.0066 10.1248C31.1917 10.3012 31.2036 10.5966 31.0325 10.7874L27.3085 14.9438L27.3025 14.952C26.847 15.5203 26.5347 16.0455 26.3954 16.5255C26.2721 16.9502 26.29 17.3359 26.473 17.6723C26.5705 17.8529 26.5386 18.0744 26.4093 18.2201L24.6408 20.1937C24.4678 19.9988 24.3305 19.8408 24.239 19.7382C24.1972 19.6808 24.1495 19.6254 24.0997 19.5721L24.0958 19.5762C24.0719 19.5495 24.046 19.5249 24.0202 19.5003L25.5321 17.8118C25.355 17.3236 25.357 16.8045 25.5201 16.2527C25.6952 15.6536 26.0672 15.0156 26.6023 14.3509C26.6142 14.3345 26.6242 14.3181 26.6381 14.3037L30.3601 10.1473L30.3641 10.1514ZM22.3651 21.2851C22.198 21.0922 22.2139 20.7948 22.4009 20.6224C22.5879 20.4501 22.8763 20.4665 23.0434 20.6594C24.9154 22.8217 30.7023 29.2204 32.3057 31.6125C34.4203 34.7001 31.1459 35.6725 30.0597 34.5482C27.3463 31.8423 21.5852 24.943 19.0528 22.0175C18.1417 22.4155 17.2565 22.477 16.3673 22.2144C15.4104 21.9334 14.4734 21.2748 13.5225 20.2634L13.5106 20.2511C12.7865 19.4633 12.2195 18.6858 11.8097 17.9165C11.39 17.1246 11.1334 16.3409 11.0419 15.5634C10.9444 14.7263 11.02 13.9468 11.2388 13.2554C11.4954 12.443 11.951 11.7557 12.5478 11.2449C13.1486 10.732 13.8866 10.3997 14.7102 10.2971C15.3945 10.213 16.1405 10.2848 16.9123 10.5453C17.9806 10.9043 19.2259 11.7968 20.2584 12.9415C21.0203 13.7847 21.6728 14.7715 22.0607 15.787C22.4645 16.8456 22.5879 17.9411 22.2636 18.9669C22.0726 19.5741 21.7265 20.1444 21.1894 20.6594C21.0044 20.8358 20.7179 20.8235 20.5468 20.6348C20.3757 20.444 20.3877 20.1485 20.5707 19.9721C20.9865 19.5721 21.253 19.1351 21.3982 18.6735C21.6489 17.8795 21.5435 16.9994 21.2132 16.1337C20.8671 15.2269 20.2803 14.3407 19.592 13.5795C18.661 12.5497 17.5569 11.7516 16.6259 11.4377C15.9873 11.2244 15.3766 11.1628 14.8176 11.2326C14.1691 11.3146 13.5882 11.5711 13.1247 11.9711C12.6592 12.3712 12.3031 12.9107 12.0982 13.5529C11.9211 14.1129 11.8595 14.7571 11.941 15.4526C12.0186 16.1091 12.2394 16.7799 12.6015 17.4651C12.9815 18.1688 13.5027 18.8807 14.1731 19.609L14.177 19.6151C15.0165 20.5076 15.8222 21.082 16.6199 21.3159C17.3739 21.5374 18.1417 21.4513 18.9434 21.0389C19.1265 20.9302 19.3632 20.9671 19.5084 21.1353C21.9791 23.989 27.9889 31.1714 30.6506 33.8323C31.8064 34.3185 32.4469 33.7194 31.8939 32.6629C31.0325 31.0135 23.6323 22.754 22.3651 21.2851ZM19.9659 25.4107L14.1651 31.8833C14.1532 31.8956 14.1432 31.9079 14.1293 31.9202C13.2818 32.8639 14.7818 34.2385 15.7128 33.3194L21.3465 27.0314L21.9513 27.7392L16.3613 33.9779C16.3494 33.9923 16.3374 34.0046 16.3215 34.0189C15.9873 34.3082 15.6511 34.497 15.3109 34.5749C14.9608 34.657 14.6167 34.62 14.2864 34.46C14.2307 34.4375 14.179 34.4087 14.1333 34.3657L13.3316 33.6004C13.3196 33.5881 13.3077 33.5779 13.2958 33.5635C12.9854 33.1942 12.8382 32.8003 12.878 32.3839C12.9158 31.99 13.1187 31.6063 13.5027 31.2371L19.3592 24.7009L19.9659 25.4107ZM26.0453 21.7877L26.3894 21.4041C26.5605 21.2133 26.849 21.201 27.032 21.3774C27.215 21.5538 27.2289 21.8493 27.0579 22.0401L26.66 22.4832L26.0453 21.7877ZM31.7785 11.5239C31.9496 11.3331 32.236 11.3208 32.4211 11.4972C32.6061 11.6737 32.618 11.9691 32.4469 12.1599L29.1824 15.8055C29.0114 15.9962 28.7249 16.0086 28.5399 15.8321C28.3549 15.6557 28.343 15.3603 28.514 15.1695L31.7785 11.5239ZM33.1909 12.8718C33.362 12.681 33.6485 12.6687 33.8335 12.8451C34.0185 13.0215 34.0304 13.3169 33.8593 13.5077L30.5968 17.1513C30.4258 17.342 30.1393 17.3544 29.9543 17.1779C29.7693 17.0015 29.7574 16.7061 29.9284 16.5153L33.1909 12.8718ZM34.6551 14.273C34.8261 14.0822 35.1126 14.0699 35.2976 14.2463C35.4826 14.4227 35.4945 14.7202 35.3235 14.9089L31.5995 19.0674C31.5855 19.0817 31.5716 19.0941 31.5577 19.1084C30.7102 19.9495 29.9006 20.4358 29.1267 20.5732C28.2873 20.723 27.5174 20.4768 26.8112 19.8408C26.6222 19.6705 26.6043 19.3731 26.7674 19.1802C26.9325 18.9853 27.221 18.9669 27.408 19.1351C27.8954 19.5741 28.4166 19.7464 28.9676 19.6459C29.5604 19.5413 30.2129 19.1371 30.9251 18.4294L30.9291 18.4253L34.6511 14.2709L34.6551 14.273Z" fill="#C04CFD"/>
</svg>
