<svg width="45" height="45" viewBox="0 0 45 45" fill="none" xmlns="http://www.w3.org/2000/svg">
<rect width="45" height="45" rx="10" fill="#FBFAFF"/>
<path d="M24.6777 15.0195V16.0254C27.3535 16.9434 29.2676 19.4727 29.2676 22.4609C29.2676 24.1895 28.6035 25.7812 27.5391 26.9824C27.5391 26.9824 27.8613 23.3594 23.584 23.3594C17.4316 23.2227 17.5098 17.8027 17.5098 17.8027C18.3789 16.8848 19.4922 16.2012 20.7617 15.8789V14.8633C17.8613 15.5176 15.4297 17.8223 14.8633 20.3027C14.707 20.9668 14.541 22.6855 14.541 22.6855L12.9102 26.8262C12.8809 26.9043 12.8613 26.9824 12.8613 27.0703C12.8613 27.4219 13.1445 27.7051 13.4961 27.7051H14.541V29.9023C14.541 31.6113 15.9277 32.998 17.6367 32.998H18.877V34.6973H27.2656V28.7305C29.1016 27.2949 30.2734 25.0586 30.2734 22.5488C30.2637 18.9844 27.9102 15.9863 24.6777 15.0195ZM16.4648 24.1016C16.0645 24.1016 15.7324 23.7695 15.7324 23.3594C15.7324 22.959 16.0645 22.627 16.4648 22.627C16.875 22.627 17.207 22.959 17.207 23.3594C17.207 23.7695 16.875 24.1016 16.4648 24.1016Z" fill="#C04CFD"/>
<path d="M29.3262 10.3027L28.2031 10.4883L26.875 15.3027L27.998 15.1172L28.2715 14.0234L30.3809 13.6816L30.9961 14.6191L32.1582 14.4336L29.3262 10.3027ZM28.4766 13.2129L28.916 11.4355L29.9219 12.9883L28.4766 13.2129Z" fill="#C04CFD"/>
<path d="M22.1289 17.793C22.2266 17.793 22.334 17.7539 22.4023 17.6758C22.4707 17.5977 22.5195 17.5098 22.5195 17.4023C22.5195 17.2949 22.4805 17.1973 22.4023 17.1289C22.3242 17.0508 22.2363 17.0117 22.1289 17.0117C22.0215 17.0117 21.9238 17.0508 21.8555 17.1289C21.7773 17.207 21.7383 17.2949 21.7383 17.4023C21.7383 17.5098 21.7773 17.6074 21.8555 17.6758C21.9336 17.7539 22.0312 17.793 22.1289 17.793Z" fill="#C04CFD"/>
<path d="M22.2852 16.123C22.334 16.1426 22.3828 16.1523 22.4219 16.1523C22.5782 16.1523 22.7246 16.0547 22.7832 15.8984C22.8614 15.7031 22.7637 15.4785 22.5586 15.4004C22.3633 15.3223 22.1387 15.4199 22.0606 15.625C21.9825 15.8301 22.0899 16.0547 22.2852 16.123Z" fill="#C04CFD"/>
<path d="M22.7637 15.0391C22.8321 15.0879 22.9102 15.1172 22.9883 15.1172C23.1153 15.1172 23.2227 15.0586 23.3008 14.9609C23.4278 14.7949 23.3887 14.541 23.2227 14.4238C23.0567 14.2969 22.8028 14.3359 22.6856 14.502C22.5489 14.668 22.588 14.9023 22.7637 15.0391Z" fill="#C04CFD"/>
<path d="M23.8183 14.248C23.8965 14.248 23.9844 14.2188 24.0527 14.1699C24.2187 14.043 24.248 13.7988 24.1211 13.623C23.9941 13.457 23.75 13.4277 23.5742 13.5547C23.4082 13.6816 23.3789 13.9258 23.5058 14.1016C23.584 14.1992 23.7012 14.248 23.8183 14.248Z" fill="#C04CFD"/>
<path d="M24.8438 13.6621C24.8926 13.6621 24.9414 13.6523 24.9805 13.6328C25.1758 13.5547 25.2832 13.3301 25.2051 13.125C25.127 12.9199 24.9024 12.8223 24.6973 12.9102C24.502 12.9883 24.3946 13.2129 24.4727 13.418C24.5508 13.5742 24.6875 13.6621 24.8438 13.6621Z" fill="#C04CFD"/>
<path d="M26.2695 13.4082C26.3672 13.4082 26.4746 13.3691 26.543 13.291C26.6211 13.2129 26.6602 13.125 26.6602 13.0176C26.6602 12.9199 26.6211 12.8125 26.543 12.7441C26.4648 12.666 26.377 12.627 26.2695 12.627C26.1621 12.627 26.0645 12.666 25.9961 12.7441C25.918 12.8223 25.8789 12.9102 25.8789 13.0176C25.8789 13.1152 25.918 13.2227 25.9961 13.291C26.0645 13.3691 26.1719 13.4082 26.2695 13.4082Z" fill="#C04CFD"/>
</svg>
