<svg width="45" height="45" viewBox="0 0 45 45" fill="none" xmlns="http://www.w3.org/2000/svg">
<rect width="45" height="45" rx="10" fill="#FBFAFF"/>
<g clip-path="url(#clip0_3_278)">
<path d="M30.3125 28.75H27.1875C25.625 28.75 24.5313 26.875 23.4375 24.5312C22.9688 25.625 22.5 26.875 21.875 28.125C23.125 30.3125 24.6875 31.875 27.1875 31.875H30.3125V35L35 30.3125L30.3125 25.625V28.75Z" fill="#C04CFD"/>
<path d="M18.4375 20.3125C18.9062 19.2188 19.375 17.9688 20 16.875C18.75 14.6875 17.0312 13.125 14.6875 13.125H10V16.25H14.6875C16.25 16.25 17.3438 18.125 18.4375 20.3125Z" fill="#C04CFD"/>
<path d="M35 14.6875L30.3125 10V13.125H27.1875C22.9688 13.125 21.0938 17.8125 19.375 22.0312C18.125 25.3125 16.7188 28.75 14.6875 28.75H10V31.875H14.6875C18.75 31.875 20.625 27.5 22.3438 23.125C23.75 19.6875 25.1562 16.25 27.1875 16.25H30.3125V19.375L35 14.6875Z" fill="#C04CFD"/>
</g>
<defs>
<clipPath id="clip0_3_278">
<rect width="25" height="25" fill="white" transform="translate(10 10)"/>
</clipPath>
</defs>
</svg>
