<svg width="45" height="45" viewBox="0 0 45 45" fill="none" xmlns="http://www.w3.org/2000/svg">
<rect width="45" height="45" rx="10" fill="#FBFAFF"/>
<path d="M33.4413 16.4463C32.2696 14.4166 29.7157 14.407 27.1469 15.0982C26.8236 13.0196 25.8087 10 22.7304 10C20.3872 10 19.103 12.2011 18.4166 14.7698C16.4558 14.0149 13.3284 13.3826 11.7891 16.0537C10.6177 18.0834 11.8824 20.2989 13.7647 22.1764C12.1275 23.4953 10.0195 25.8873 11.5588 28.5537C12.7305 30.5834 15.2844 30.593 17.8481 29.9018C18.1765 31.9803 19.1911 35 22.2697 35C24.6128 35 25.8971 32.7941 26.5833 30.2254C28.5491 30.9851 31.6715 31.6126 33.2107 28.9463C34.3824 26.9213 33.1177 24.7059 31.2354 22.8284C32.8726 21.5047 34.9803 19.1126 33.4413 16.4463ZM31.8136 28.3187C30.794 30.0784 28.3677 29.5341 26.8627 28.9802C27.1961 27.2353 27.299 25.4507 27.299 24.1764H26.3873C26.3873 25.299 26.2059 26.9362 25.8087 28.5293C25.7059 28.9362 25.5883 29.3383 25.456 29.7304C24.7745 31.7744 23.6862 33.4753 22.1177 33.4753C20.0835 33.4753 19.3383 31.1028 19.0686 29.5246C20.75 28.941 22.3432 28.1373 23.4461 27.4953L22.9901 26.706C22.0196 27.2646 20.5098 27.9267 18.9315 28.3776C18.5245 28.4954 18.1176 28.5983 17.7107 28.6763C15.6029 29.1082 13.5883 29.0196 12.804 27.6567C11.7891 25.897 13.4658 24.0688 14.7011 23.0391C16.0491 24.2009 17.5391 25.1813 18.6471 25.8185L19.103 25.0295C18.1324 24.4705 16.8038 23.49 15.6226 22.3431C15.3236 22.0539 15.0343 21.7552 14.7597 21.4459C13.3284 19.8332 12.4019 18.0442 13.1862 16.6814C14.2011 14.9216 16.6274 15.466 18.1325 16.0198C17.7991 17.7647 17.6961 19.5493 17.6961 20.8236H18.6128C18.6128 19.701 18.794 18.0639 19.1911 16.4708C19.294 16.0638 19.4118 15.6569 19.5441 15.2649C20.2256 13.2208 21.3137 11.5248 22.8824 11.5248C24.9167 11.5248 25.6617 13.8973 25.9313 15.4755C24.2501 16.059 22.6519 16.8628 21.5489 17.5048L22.0097 18.2941C22.9755 17.7355 24.4853 17.0734 26.0687 16.6225C26.4705 16.5047 26.8774 16.4018 27.2843 16.3238C29.3971 15.8919 31.4117 15.9805 32.1961 17.3434C33.2107 19.1031 31.5343 20.9313 30.299 21.961C28.9509 20.7992 27.4559 19.8188 26.353 19.1816L25.897 19.9705C26.8626 20.5297 28.1961 21.5101 29.3725 22.657C29.6764 22.9461 29.9655 23.2502 30.2401 23.5589C31.6715 25.1668 32.598 26.9558 31.8136 28.3187Z" fill="#C04CFD"/>
<path d="M22.5001 20.7432C21.53 20.7432 20.7435 21.5292 20.7435 22.4995C20.7435 23.4698 21.5301 24.2563 22.5001 24.2563C23.47 24.2563 24.2565 23.4698 24.2565 22.4995C24.2565 21.5292 23.47 20.7432 22.5001 20.7432Z" fill="#C04CFD"/>
</svg>
