<svg width="45" height="45" viewBox="0 0 45 45" fill="none" xmlns="http://www.w3.org/2000/svg">
<rect width="45" height="45" rx="10" fill="#FBFAFF"/>
<g clip-path="url(#clip0_3_273)">
<path d="M30.2461 35H27.3335C26.9955 35 26.7215 34.726 26.7215 34.3881V32.0579H18.2785V34.3881C18.2785 34.726 18.0045 35 17.6666 35H14.7539C14.416 35 14.142 34.726 14.142 34.3881V33.8573H11.8414C11.5035 33.8573 11.2295 33.5833 11.2295 33.2454V27.1358C11.2295 26.7979 11.5035 26.5239 11.8414 26.5239H14.142V25.9932C14.142 25.6553 14.4159 25.3813 14.7539 25.3813H17.6665C18.0044 25.3813 18.2784 25.6553 18.2784 25.9932V28.3234H26.7215V25.9932C26.7215 25.6553 26.9955 25.3813 27.3335 25.3813H30.2461C30.584 25.3813 30.858 25.6553 30.858 25.9932V26.5239H33.1585C33.4965 26.5239 33.7705 26.7979 33.7705 27.1358V33.2453C33.7705 33.5833 33.4965 33.8573 33.1585 33.8573H30.858V34.388C30.858 34.726 30.5841 35 30.2461 35ZM27.9454 33.7762H29.6342V26.6051H27.9454V33.7762ZM15.3659 33.7762H17.0547V26.6051H15.3659V33.7762ZM30.858 32.6334H32.5466V27.7477H30.858V32.6334ZM12.4533 32.6334H14.142V27.7477H12.4533V32.6334ZM18.2785 30.8341H26.7216V29.5472H18.2785V30.8341ZM21.1248 27.0858C21.023 27.0858 20.9198 27.0604 20.8248 27.0068C20.5304 26.8409 20.4264 26.4676 20.5923 26.1733C21.684 24.2372 23.1579 22.6003 24.892 21.3406C24.1352 20.2925 23.2707 19.3387 22.3158 18.4932C19.9432 21.0481 16.7049 22.7686 13.1069 23.2048C13.1866 23.5267 13.2831 23.8449 13.3963 24.1585C13.5112 24.4763 13.3466 24.8271 13.0287 24.9419C12.7107 25.0568 12.3602 24.8921 12.2453 24.5742C11.8192 23.3944 11.6031 22.1572 11.6031 20.8968C11.6031 14.8882 16.4915 10 22.5 10C28.5086 10 33.3968 14.8882 33.3968 20.8968C33.3968 21.9814 33.2359 23.0539 32.9184 24.0849C32.8189 24.4079 32.4763 24.5889 32.1535 24.4896C31.8305 24.3902 31.6493 24.0477 31.7488 23.7247C32.0303 22.8106 32.173 21.8591 32.173 20.8968C32.173 20.5244 32.1519 20.157 32.1107 19.7954C30.1319 20.0246 28.2555 20.6766 26.5904 21.6818C26.9509 22.2557 27.2801 22.8484 27.575 23.4565C27.7225 23.7605 27.5956 24.1266 27.2915 24.274C26.9875 24.4213 26.6213 24.2946 26.4739 23.9905C26.2007 23.4271 25.9002 22.8825 25.5744 22.3582C23.9965 23.5124 22.6544 25.0079 21.6584 26.7743C21.5458 26.9737 21.3384 27.0858 21.1248 27.0858ZM15.0942 14.6806C13.6798 16.3629 12.827 18.5321 12.827 20.8968C12.827 21.2666 12.8479 21.6341 12.8896 21.9982C16.1983 21.6143 19.1795 20.049 21.3702 17.7139C19.5271 16.302 17.4011 15.2635 15.0942 14.6806ZM23.1048 17.5722C24.1469 18.4938 25.0886 19.5353 25.9051 20.6656C27.7101 19.5658 29.7462 18.8484 31.8947 18.5886C31.1308 15.4804 28.8606 12.9578 25.9057 11.8427C25.3838 13.9726 24.413 15.9151 23.1048 17.5722ZM16.0672 13.6788C18.261 14.3258 20.344 15.3889 22.1619 16.7926C23.3682 15.2578 24.2604 13.4572 24.7334 11.4841C24.0164 11.314 23.2684 11.2238 22.5 11.2238C20.0324 11.2238 17.7779 12.1524 16.0672 13.6788Z" fill="#C04CFD"/>
</g>
<defs>
<clipPath id="clip0_3_273">
<rect width="25" height="25" fill="white" transform="translate(10 10)"/>
</clipPath>
</defs>
</svg>
